# File created by Blade
# Date/Time:  Tue Sep 30 19:06:28 2014
#---------------------------------------------------------
:version 1.10
:name HOM
:units
  mass 1.0
  length 1.000000
  angle deg
:documentation
     Acclaim Skeleton File
:root
   axis xyz
   order TX TY TZ RX RY RZ
   position 0.000000 0.000000 0.000000
   orientation 0 0 0
:bonedata
   begin
      id 1
      name Spine_dum
      direction 0.000000 1.000000 0.000000
      length 7.508948
      axis 0.0 0.0 0.0 xyz
   end
   begin
      id 2
      name LeftUpLeg_dum
      direction 1.000000 0.000000 0.000000
      length 3.000560
      axis 0.0 0.0 0.0 xyz
   end
   begin
      id 3
      name RightUpLeg_dum
      direction -1.000000 0.000000 0.000000
      length 3.000560
      axis 0.0 0.0 0.0 xyz
   end
   begin
      id 4
      name Spine
      direction 0.000000 1.000000 0.000000
      length 0.000000
      axis 0.0 0.0 0.0 xyz
      dof rx ry rz
   end
   begin
      id 5
      name Spine_dum1
      direction 0.000000 1.000000 0.000000
      length 13.861154
      axis 0.0 0.0 0.0 xyz
   end
   begin
      id 6
      name Spine_dum2
      direction 0.000000 1.000000 0.000000
      length 8.204781
      axis 0.0 0.0 0.0 xyz
   end
   begin
      id 7
      name Spine_dum3
      direction 0.000000 1.000000 0.000000
      length 8.204781
      axis 0.0 0.0 0.0 xyz
   end
   begin
      id 8
      name Head
      direction 0.000000 1.000000 0.000000
      length 4.527550
      axis 0.0 0.0 0.0 xyz
      dof rx ry rz
   end
   begin
      id 9
      name LeftShoulder
      direction 1.000000 0.000000 0.000000
      length 6.635956
      axis 0.0 0.0 -90.0 xyz
      dof rx ry rz
   end
   begin
      id 10
      name LeftArm
      direction 1.000000 0.000000 0.000000
      length 10.274218
      axis 0.0 0.0 -90.0 xyz
      dof rx ry rz
   end
   begin
      id 11
      name LeftForeArm
      direction 1.000000 0.000000 0.000000
      length 8.522147
      axis 0.0 0.0 -90.0 xyz
      dof ry rz rx
   end
   begin
      id 12
      name LeftHand
      direction 0.000000 0.000000 0.000000
      length 0.000000
      axis 0.0 0.0 -90.0 xyz
      dof rx ry rz
   end
   begin
      id 13
      name LeftHand_dum1
      direction 0.000000 0.000000 0.000000
      length 0.000000
      axis 0.0 0.0 -90.0 xyz
   end
   begin
      id 14
      name LeftHand_dum2
      direction 1.000000 0.000000 0.000000
      length 3.937000
      axis 0.0 0.0 -90.0 xyz
   end
   begin
      id 15
      name LeftHandThumb1
      direction 0.000000 0.000000 1.000000
      length 3.937000
      axis 0.0 0.0 -90.0 xyz
      dof rx rz ry
   end
   begin
      id 16
      name RightShoulder
      direction -1.000000 0.000000 0.000000
      length 6.635956
      axis 0.0 0.0 90.0 xyz
      dof rx ry rz
   end
   begin
      id 17
      name RightArm
      direction -1.000000 0.000000 0.000000
      length 10.274218
      axis 0.0 0.0 90.0 xyz
      dof rx ry rz
   end
   begin
      id 18
      name RightForeArm
      direction -1.000000 0.000000 0.000000
      length 8.522147
      axis 0.0 0.0 90.0 xyz
      dof ry rz rx
   end
   begin
      id 19
      name RightHand
      direction 0.000000 0.000000 0.000000
      length 0.000000
      axis 0.0 0.0 90.0 xyz
      dof rx ry rz
   end
   begin
      id 20
      name RightHand_dum1
      direction 0.000000 0.000000 0.000000
      length 0.000000
      axis 0.0 0.0 90.0 xyz
   end
   begin
      id 21
      name RightHand_dum2
      direction -1.000000 0.000000 0.000000
      length 3.937000
      axis 0.0 0.0 90.0 xyz
   end
   begin
      id 22
      name RightHandThumb1
      direction 0.000000 0.000000 1.000000
      length 3.937000
      axis 0.0 0.0 90.0 xyz
      dof rx rz ry
   end
   begin
      id 23
      name LeftUpLeg
      direction 0.000000 -1.000000 0.000000
      length 16.490845
      axis 0.0 0.0 0.0 xyz
      dof rx ry rz
   end
   begin
      id 24
      name LeftLeg
      direction 0.000000 -1.000000 0.000000
      length 14.556576
      axis 0.0 0.0 0.0 xyz
      dof rx ry rz
   end
   begin
      id 25
      name LeftFoot
      direction 0.000000 -0.258819 0.965926
      length 4.831116
      axis 15.0 0.0 0.0 xyz
      dof rx ry rz
   end
   begin
      id 26
      name LeftToeBase
      direction 0.000000 0.000000 1.000000
      length 2.952750
      axis 0.0 0.0 0.0 xyz
      dof rx ry rz
   end
   begin
      id 27
      name RightUpLeg
      direction 0.000000 -1.000000 0.000000
      length 16.490845
      axis 0.0 0.0 0.0 xyz
      dof rx ry rz
   end
   begin
      id 28
      name RightLeg
      direction 0.000000 -1.000000 0.000000
      length 14.556576
      axis 0.0 0.0 0.0 xyz
      dof rx ry rz
   end
   begin
      id 29
      name RightFoot
      direction 0.000000 -0.258819 0.965926
      length 4.831116
      axis 15.0 0.0 0.0 xyz
      dof rx ry rz
   end
   begin
      id 30
      name RightToeBase
      direction 0.000000 0.000000 1.000000
      length 2.952750
      axis 0.0 0.0 0.0 xyz
      dof rx ry rz
   end
:hierarchy
   begin
      root Spine_dum LeftUpLeg_dum RightUpLeg_dum
      Spine_dum Spine
      LeftUpLeg_dum LeftUpLeg
      RightUpLeg_dum RightUpLeg
      Spine Spine_dum1 Spine_dum2 Spine_dum3
      Spine_dum1 Head
      Spine_dum2 LeftShoulder
      Spine_dum3 RightShoulder
      LeftShoulder LeftArm
      LeftArm LeftForeArm
      LeftForeArm LeftHand
      LeftHand LeftHand_dum1 LeftHand_dum2
      LeftHand_dum1 LeftHandThumb1
      RightShoulder RightArm
      RightArm RightForeArm
      RightForeArm RightHand
      RightHand RightHand_dum1 RightHand_dum2
      RightHand_dum1 RightHandThumb1
      LeftUpLeg LeftLeg
      LeftLeg LeftFoot
      LeftFoot LeftToeBase
      RightUpLeg RightLeg
      RightLeg RightFoot
      RightFoot RightToeBase
   end

# File created by Blade
# Date/Time:  Thu Sep 25 18:48:06 2014
# Frame Rate: 120.000 fps
#------------------------------------------------------
:FULLY-SPECIFIED
:DEGREES
79
root 0.575582 32.759590 1.188599 11.108054 3.545000 -0.408219
Spine -13.192945 3.303812 -0.572629
Head -11.764463 -7.399765 11.254526
LeftShoulder -11.710361 17.384235 28.291477
LeftArm 19.693612 -25.593406 -24.306677
LeftForeArm 10.427981 -0.000000 15.036897
LeftHand -22.239391 -0.000000 -10.385478
LeftHandThumb1 -26.253704 0.000000 33.147579
RightShoulder -20.066452 11.359024 -37.985542
RightArm -1.700130 5.592128 25.150366
RightForeArm -29.440937 0.000000 13.702474
RightHand -8.231874 -0.000000 16.601009
RightHandThumb1 -24.326973 -0.000000 -32.862282
LeftUpLeg -7.010577 7.004632 4.559290
LeftLeg 0.228778 -0.000000 -0.000000
LeftFoot -10.076409 2.100370 -12.147004
LeftToeBase 10.621422 -0.000000 -0.000000
RightUpLeg -6.428786 -9.579988 -3.239863
RightLeg 2.333331 -0.000000 -0.000000
RightFoot -8.650667 -7.673017 4.277375
RightToeBase 0.461675 -0.000000 -0.000000
80
root 0.576404 32.759866 1.188754 11.113814 3.551249 -0.400527
Spine -13.188610 3.294818 -0.576585
Head -11.751825 -7.390532 11.262256
LeftShoulder -11.706584 17.395768 28.300470
LeftArm 19.670148 -25.647962 -24.343647
LeftForeArm 10.526426 -0.000000 15.170439
LeftHand -22.378791 -0.000000 -10.345304
LeftHandThumb1 -26.253704 0.000000 33.147579
RightShoulder -20.063555 11.373897 -37.975216
RightArm -1.690472 5.535639 25.127505
RightForeArm -29.551280 -0.000000 13.700940
RightHand -8.246808 -0.000000 16.693879
RightHandThumb1 -24.326973 -0.000000 -32.862282
LeftUpLeg -7.019534 6.997900 4.547998
LeftLeg 0.242082 -0.000000 -0.000000
LeftFoot -10.152181 2.167953 -11.955603
LeftToeBase 10.926688 -0.000000 -0.000000
RightUpLeg -6.431892 -9.592784 -3.247074
RightLeg 2.329869 -0.000000 -0.000000
RightFoot -8.650832 -7.660589 4.287590
RightToeBase 0.457290 -0.000000 -0.000000
81
root 0.576034 32.759843 1.189102 11.118719 3.555795 -0.401283
Spine -13.185829 3.285499 -0.572659
Head -11.733900 -7.356668 11.278263
LeftShoulder -11.704362 17.435035 28.295369
LeftArm 19.685544 -25.662569 -24.330913
LeftForeArm 10.571643 0.000000 15.165853
LeftHand -22.362797 0.000000 -10.313482
LeftHandThumb1 -26.253704 0.000000 33.147579
RightShoulder -20.049248 11.365742 -37.968975
RightArm -1.691043 5.513159 25.129922
RightForeArm -29.570961 -0.000000 13.714088
RightHand -8.268005 -0.000000 16.709085
RightHandThumb1 -24.326973 -0.000000 -32.862282
LeftUpLeg -7.025454 7.004512 4.548235
LeftLeg 0.243639 -0.000000 -0.000000
LeftFoot -10.147560 2.179484 -11.913855
LeftToeBase 10.870181 -0.000000 -0.000000
RightUpLeg -6.430451 -9.583331 -3.246137
RightLeg 2.320128 -0.000000 -0.000000
RightFoot -8.655394 -7.660240 4.327563
RightToeBase 0.471351 -0.000000 -0.000000
82
root 0.575979 32.759816 1.189715 11.122374 3.552844 -0.401523
Spine -13.177209 3.292376 -0.569577
Head -11.738463 -7.353787 11.283277
LeftShoulder -11.685378 17.367925 28.327184
LeftArm 19.641709 -25.603560 -24.329682
LeftForeArm 10.577224 0.000000 15.200968
LeftHand -22.385919 -0.000000 -10.305830
LeftHandThumb1 -26.253704 0.000000 33.147579
RightShoulder -20.043751 11.367339 -37.972433
RightArm -1.709763 5.530868 25.133172
RightForeArm -29.703474 -0.000000 13.746164
RightHand -8.280211 -0.000000 16.787599
RightHandThumb1 -24.326973 -0.000000 -32.862282
LeftUpLeg -7.025188 7.008329 4.547675
LeftLeg 0.238822 -0.000000 -0.000000
LeftFoot -10.142531 2.167330 -11.948827
LeftToeBase 10.888694 -0.000000 -0.000000
RightUpLeg -6.434170 -9.586578 -3.245019
RightLeg 2.321742 -0.000000 -0.000000
RightFoot -8.653153 -7.665219 4.301932
RightToeBase 0.468114 -0.000000 -0.000000
83
root 0.574300 32.759596 1.190210 11.127251 3.562529 -0.406213
Spine -13.167685 3.286902 -0.560341
Head -11.748709 -7.344136 11.290195
LeftShoulder -11.706740 17.415244 28.318953
LeftArm 19.698966 -25.592170 -24.315152
LeftForeArm 10.487086 -0.000000 15.188922
LeftHand -22.387201 0.000000 -10.325976
LeftHandThumb1 -26.253704 0.000000 33.147579
RightShoulder -20.052961 11.354074 -37.974741
RightArm -1.683638 5.481153 25.156805
RightForeArm -29.584855 0.000000 13.722538
RightHand -8.373361 0.000000 16.686915
RightHandThumb1 -24.326973 -0.000000 -32.862282
LeftUpLeg -7.032167 6.999579 4.557799
LeftLeg 0.241876 -0.000000 -0.000000
LeftFoot -10.048822 2.106373 -11.945030
LeftToeBase 10.456084 -0.000000 -0.000000
RightUpLeg -6.431551 -9.589234 -3.235344
RightLeg 2.309088 -0.000000 -0.000000
RightFoot -8.638913 -7.675164 4.307377
RightToeBase 0.423749 -0.000000 -0.000000
84
root 0.574429 32.759879 1.190923 11.137518 3.559484 -0.404165
Spine -13.170458 3.281862 -0.556871
Head -11.738049 -7.332857 11.293963
LeftShoulder -11.706113 17.416567 28.327183
LeftArm 19.690538 -25.556514 -24.304571
LeftForeArm 10.454104 -0.000000 15.206237
LeftHand -22.432040 -0.000000 -10.331479
LeftHandThumb1 -26.253704 0.000000 33.147579
RightShoulder -20.029802 11.371798 -37.981340
RightArm -1.721962 5.475993 25.156821
RightForeArm -29.710979 -0.000000 13.752554
RightHand -8.353331 0.000000 16.769064
RightHandThumb1 -24.326973 -0.000000 -32.862282
LeftUpLeg -7.039857 7.017151 4.551605
LeftLeg 0.239193 -0.000000 -0.000000
LeftFoot -10.134366 2.139174 -11.934736
LeftToeBase 10.855345 -0.000000 -0.000000
RightUpLeg -6.434192 -9.578821 -3.236822
RightLeg 2.295623 -0.000000 -0.000000
RightFoot -8.636561 -7.690794 4.297307
RightToeBase 0.446577 -0.000000 -0.000000
